<svg xmlns="http://www.w3.org/2000/svg" width="96" height="96" viewBox="0 0 96 96" version="1.1"><path d="M 36.286 10.394 C -6.296 24.271, 3.299 86.500, 48.021 86.500 C 98.768 86.500, 100.317 10.856, 49.602 9.300 C 43.860 9.124, 38.945 9.528, 36.286 10.394 M 41.988 12.990 C 13.909 17.819, 2.806 52.870, 22.968 73.032 C 43.419 93.482, 78.357 82.030, 83.025 53.346 C 86.856 29.809, 65.620 8.926, 41.988 12.990" stroke="none" fill="#9b28e0" fill-rule="evenodd"/><path d="M 36.763 16.466 C 16 24.357, 8.356 49.123, 21.008 67.511 C 24.768 72.976, 25.571 73.086, 26.346 68.237 C 30.117 44.655, 65.883 44.655, 69.654 68.237 C 70.430 73.093, 71.231 72.978, 75.025 67.464 C 93.248 40.977, 66.406 5.200, 36.763 16.466 M 41.514 25.168 C 35.288 30.065, 35.102 38.384, 41.106 43.436 C 49.319 50.347, 61.717 42.010, 58.855 31.500 C 56.799 23.954, 47.414 20.527, 41.514 25.168" stroke="none" fill="#9fbbfc" fill-rule="evenodd"/></svg>